<svg xmlns="http://www.w3.org/2000/svg" viewBox="0 0 7.9819 5.1882"><rect y="1.7294" width="7.9819" height="1.7294" fill="#fff"/><rect y="3.4588" width="7.9819" height="1.7294" fill="#0a0205"/><rect width="7.9819" height="1.7294" fill="#ce0026"/><polygon points="4.095 3.063 4.11 2.982 4.062 2.909 4.095 3.063" fill="#fdfefb"/><path d="M4.0657,2.7642l-.0289.0277.0206.0962.0012.0018.03-.0978Z" fill="#fdfefb"/><path d="M4.14,2.7436l-.031-.0283q-.0178.0223-.0376.043l.06.0737Z" fill="#fdfefb"/><path d="M4.225,2.7572,4.18,2.6046c-.0076.0151-.0161.03-.0254.0454l.0033-.0055L4.1575,2.65l-.0092.09.0585.0534Z" fill="#fdfefb"/><path d="M4.0268,3.1611l-.0041.0005c-.0084.0029-.0125.0131-.0141.0169a.06.06,0,0,0,.01.0488l.0112-.0129.02-.0192-.0028-.0041L4.04,3.1824l-.0048-.0042L4.029,3.17l-.0012-.0089Z" fill="#fdfefb"/><path d="M3.834,2.6661l.0069.0676L3.8665,2.71q-.0136-.0168-.0259-.0345Z" fill="#fdfefb"/><polygon points="3.92 2.909 3.871 2.982 3.887 3.063 3.92 2.909" fill="#fdfefb"/><path d="M4.1484,2.66l-.0058.009c-.0091.0136-.0186.0269-.0287.04l.0271.0247Z" fill="#fdfefb"/><path d="M3.9245,2.8881l.0208-.0971L3.916,2.7645l-.0224.0276.03.0978Z" fill="#fdfefb"/><path d="M3.7546,3.1307l-.0169-.0644-.039.0544C3.7173,3.1246,3.7359,3.128,3.7546,3.1307Z" fill="#fdfefb"/><path d="M4.0447,3.1413l.0036-.0019c.0183.0009.0366.0012.0549.001l-.007-.0328-.02.0242-.0056,0L4.037,3.1055l-.0014-.0026-.0164-.115.0074.1133-.0008.0027-.0322.0429L3.99,3.1484h0l-.0033-.0016L3.956,3.1042l-.0008-.0026.0064-.1195-.0162.12-.0014.0025-.0328.0274-.0056,0-.02-.0218L3.8787,3.14c.0183,0,.0366,0,.0548-.001l.0037.0019a.0233.0233,0,0,0,.0131.0113l.0048,0,.0066.0009a.0352.0352,0,0,1,.019.0215l.0017.0054h.017l.0018-.0054A.0353.0353,0,0,1,4.02,3.154l.0067-.0009.0047,0A.0238.0238,0,0,0,4.0447,3.1413Z" fill="#fdfefb"/><path d="M3.7844,3.1346l.0349.0033-.0141-.0368Z" fill="#fdfefb"/><path d="M3.8705,3.14l.0121-.0568L3.865,2.9916l-.0463.0692-.0038.0018L3.8116,3.06l-.0241-.07-.0438.0676.02.0745h.001l.0114.0014L3.8026,3.09l.0038-.0019.0034.0025.0184.0479Z" fill="#fdfefb"/><path d="M4.1626,3.1379l.0348-.0033-.0207-.0335Z" fill="#fdfefb"/><path d="M4.05,3.1475A.0318.0318,0,0,1,4.036,3.16l.0005.0075.0042.0049.0053.0048.0078.01.0043.0051a.025.025,0,0,0,.0151.0034c.0135,0,.0595-.0026.1255-.0069a.0382.0382,0,0,1-.001-.0152c.002-.0128.0117-.0272.0241-.0282a.0252.0252,0,0,1,.0194.0087.0424.0424,0,0,1,.0121.0262c.0593-.0109.1247-.0237.1325-.0272l.0028-.0019c.0027-.0026.0037-.0069.0035-.0155A.1119.1119,0,0,0,4.3885,3.11l-.0093-.0067a.9225.9225,0,0,1-.329.0441Zm.0655.0308-.0051.0036-.0017,0-.0224-.0056-.0212-.0022L4.06,3.1684l.0054-.0052h0l.0226.0023.024.006Zm.0718-.0035h0L4.162,3.1739c-.0071,0-.0144,0-.0216,0l-.0056-.0051L4.14,3.1636c.0074,0,.0149-.0005.0222,0l.0258.0009.005.0057Zm.1435-.044.02-.0089a.1091.1091,0,0,1,.0258-.0056l.0059.0048-.0048.0058a.104.104,0,0,0-.0234.0051L4.3363,3.14l-.0026.0007L4.329,3.1381Zm-.0733.0211.0263-.0082.0246-.0055.0062.0043-.0043.0063-.0237.0052-.0255.008-.0018,0-.0051-.0036Z" fill="#fdfefb"/><path d="M4.0992,3.0835l.0122.0568.0423-.0018.0184-.0479.0034-.0025.0038.0019.0269.0435.0114-.0014h.001l.0195-.0745L4.1944,2.99,4.17,3.06l-.0033.0027-.0039-.0018-.0462-.0692Z" fill="#fdfefb"/><path d="M3.7485,2.7569l.008-.2591c-.0057-.02-.01-.0391-.0136-.0579l-.0162.3913Z" fill="#fdfefb"/><path d="M3.91,2.7588q-.02-.02-.0386-.0422l-.03.027.009.0884Z" fill="#fdfefb"/><path d="M3.735,3.0562h0l-.0311-.1187L3.6533,3.11l.0369.0089Z" fill="#fdfefb"/><polygon points="3.774 2.855 3.777 2.858 3.797 2.927 3.842 2.867 3.846 2.866 3.849 2.869 3.869 2.971 3.917 2.899 3.887 2.8 3.851 2.845 3.848 2.846 3.847 2.846 3.844 2.843 3.834 2.75 3.776 2.803 3.774 2.804 3.773 2.804 3.77 2.802 3.753 2.769 3.71 2.918 3.77 2.856 3.774 2.855" fill="#fdfefb"/><polygon points="4.084 3.307 4.079 3.312 4.084 3.318 4.09 3.312 4.084 3.307" fill="#fdfefb"/><path d="M3.7568,2.7572l.0182.0366L3.8335,2.74l-.0091-.0892c-.0088-.0141-.0167-.0282-.024-.0423Z" fill="#fdfefb"/><path d="M4.2831,3.1207l-.0389-.0544-.017.0644C4.2459,3.128,4.2646,3.1246,4.2831,3.1207Z" fill="#fdfefb"/><path d="M3.7743,3.2662l-.0047,0-.0055.0092a.0087.0087,0,0,0,.0116.0043l.0035-.0033Z" fill="#fdfefb"/><circle cx="3.6001" cy="3.2564" r="0.0078" fill="#fdfefb"/><path d="M4.3891,3.16c-.0105.0047-.0987.0213-.1361.0281V3.1873l-.005.011-.01.0209L4.2327,3.23l-.0035.0025h0l-.0035-.0021-.0062-.01-.008-.01-.0034-.0041-.0063-.01h0c-.0674.0045-.1144.0067-.1282.0071H4.0709A.0321.0321,0,0,1,4.0562,3.2l-.0209.02-.0141.0168-.0032.0016h0l-.0032-.0017a.0948.0948,0,0,1-.0162-.04H3.9833a.0937.0937,0,0,1-.0161.04l-.0032.0017h0l-.0032-.0016L3.9465,3.22,3.9256,3.2a.0321.0321,0,0,1-.0147.0031H3.9085c-.0138,0-.0608-.0026-.1282-.0071h0l-.0063.01-.0035.0041-.0079.01-.0062.01-.0035.0021h0L3.7491,3.23l-.0047-.0111-.01-.0209-.0049-.011,0,.0009c-.0374-.0068-.1256-.0234-.136-.0281l-.0049-.0032h0a.0905.0905,0,0,0-.026.0125l-.0079.0062-.0046.0223-.006.0062a.0527.0527,0,0,0-.0251.013l-.0064.0074a.0489.0489,0,0,1-.0154.0143L3.4948,3.24l0,0a.0419.0419,0,0,1,.01.025.0291.0291,0,0,0,.0055.0162.025.025,0,0,0,.0144.0073.008.008,0,0,1,.0064.0091.0439.0439,0,0,0,.0044.03.0492.0492,0,0,0,.0287.02,1.512,1.512,0,0,0,.37.0391l.0482-.0006H4l.0484.0006a1.5109,1.5109,0,0,0,.3695-.0391.0491.0491,0,0,0,.0288-.02.0439.0439,0,0,0,.0043-.03.0081.0081,0,0,1,.0064-.0091.0252.0252,0,0,0,.0144-.0072.029.029,0,0,0,.0056-.0163.0424.0424,0,0,1,.01-.025l0,0-.0016-.0009A.0489.0489,0,0,1,4.47,3.2246l-.0064-.0074a.0532.0532,0,0,0-.0251-.013l-.006-.0062-.0047-.0223L4.42,3.17a.0918.0918,0,0,0-.026-.0125h0Zm-.7932.0538a.0078.0078,0,1,1-.0078.0078A.0078.0078,0,0,1,3.5959,3.2139Zm.0013.0845a.0079.0079,0,1,1,.0079-.0078A.0078.0078,0,0,1,3.5972,3.2984ZM3.62,3.304a.0079.0079,0,1,1,.0078-.0078A.0078.0078,0,0,1,3.62,3.304Zm.0355.0114a.0079.0079,0,1,1,.0079-.0079A.0078.0078,0,0,1,3.6551,3.3154Zm-.07-.0438c-.0086-.0022-.01-.0069-.0067-.0149a.03.03,0,0,1,.0222-.0173.0414.0414,0,0,0,.0181-.033L3.6114,3.204l-.01.0042a.007.007,0,0,1-.0086-.0064.0058.0058,0,0,1,.0074-.0058.0561.0561,0,0,0,.0285-.0038c.0079-.0029.0064.0045.005.0091l-.0157.051c-.0013.0044-.0049.0094,0,.0136a.0136.0136,0,0,0,.0139.0024c.0048-.0017.0054-.0072.0064-.0133a.0092.0092,0,0,0-.0007-.0072L3.6348,3.245l.0118-.0068.0093-.0055c.0031.0018-.0017.0218-.0059.0318l-.0006.0085.0031.0022c.0066.002.0137.0062.0206.0032.0052-.0024.0058-.0086.0051-.0142,0-.0036-.006-.0073-.0012-.0106a.0464.0464,0,0,1,.0168-.0076c.0044-.0009.0038.0039.0031.0068l-.0091.0349c-.0018.007-.0063.009-.0132.0072Zm.25-.0347c-.0053.0276-.0056.0559-.012.0833-.0026.0115-.0085.0193-.0206.0188a.0152.0152,0,0,1-.0154-.019c.0005-.0044-.0021-.0055-.0055-.0056a.0113.0113,0,0,1-.0124-.01c-.0012-.0053-.0058-.0051-.0079-.002-.0065.0094-.0145.0058-.0228.0045a.0242.0242,0,0,0-.0252.0072l-.008.0058c-.01.006-.0273,0-.0273-.004s.0231-.002.0289-.0148a.0236.0236,0,0,0,.0006-.0205l-.002-.0075c.0025-.0045.0039-.0116.0093-.012l.003,0,.0032.0108a.0308.0308,0,0,0,.0059.02.0178.0178,0,0,0,.013.0027c.0026,0,.0123,0,.0143-.0057L3.754,3.2844,3.745,3.28l-.0071-.0031-.0007-.0034c0-.0046.0051-.0079.0071-.0092.0071-.0046.01-.0018.0149-.0058l.0075-.01a.0147.0147,0,0,1,.0109-.0048l.0092.0106c.01.0148.0044.0106.0115.0185.0085.01.0066.0141-.0058.0162-.0033.0006-.0079,0-.0085.0045s.0024.0065.0065.0069c.0083.0009.0115.0055.0107.0137,0,.0039.0014.0073.0059.0071s.0043-.0042.0047-.0071L3.82,3.2554l0-.0066c-.01-.0117.0014-.013.0079-.0168S3.8368,3.2308,3.8356,3.2369Zm.0025.0835-.0016-.0072.01-.0751.0024-.006.0086.0083.0078.0079L3.86,3.2532l-.0027.005a.09.09,0,0,0-.0037.0255l-.001.0172-.0011.0115c-.0008.0027-.0031.011-.0077.0114Zm.1791.0116c-.01,0-.0183-.0013-.0239.0122s-.0246.012-.0307-.0029A.0125.0125,0,0,0,3.95,3.3321L3.9035,3.328a.0139.0139,0,0,0-.0141.0078.0432.0432,0,0,1-.0172.0144c-.0119.0054-.0275,0-.0278-.0031l.0016-.0022.0109-.0009a.0234.0234,0,0,0,.0209-.0157.0261.0261,0,0,0-.004-.0208l-.005-.0083.0068-.01c.0043-.004.0057-.0039.0063-.0038l.0042.0049.0066.0161a.0077.0077,0,0,0,.0082.0053c.0053,0,.005-.0038.0055-.0074A.0257.0257,0,0,0,3.905,3.289l-.0016-.0036.0052-.01h.0108l.0032.0069.0019.0057.0113.0026a.4089.4089,0,0,1,.0469.0021c.01,0,.0157.0025.0147.0137,0,.0032-.0013.008.0039.0086s.005-.0043.0062-.0074c.0051-.0141.0187-.0151.03-.0195l.0052.003.0013.0052C4.0517,3.3293,4.0506,3.3307,4.0172,3.332Zm.0466-.0846a.0079.0079,0,1,1-.0078.0079A.0078.0078,0,0,1,4.0638,3.2474Zm-.0061.0287a.0078.0078,0,1,1,.0078.0078A.0078.0078,0,0,1,4.0577,3.2761Zm.0329.0762a.0079.0079,0,1,1,.0079-.0079A.0078.0078,0,0,1,4.0906,3.3523Zm.0215,0A.0079.0079,0,1,1,4.12,3.3444.0078.0078,0,0,1,4.1121,3.3523Zm.0193-.0264c-.0177.0029-.0358.0007-.0531.0051-.0119.002-.0135-.0035-.0121-.0139a.0248.0248,0,0,1,.014-.0225l.0078-.0065c.0017-.0027.0006-.0042,0-.0142l-.0033-.0171-.0036-.0026L4.078,3.2519c-.0013-.0031.0065-.0093.013-.0121l.0039,0,.0022.0075L4.1028,3.3c.0006.0054,0,.0127.0072.0142A.0138.0138,0,0,0,4.1246,3.31a.014.014,0,0,0-.0026-.0172C4.12,3.29,4.1159,3.2877,4.12,3.2842s.0074-.0074.0126-.0066.0039.0051.0043.0087l.0036.0277C4.1424,3.3225,4.1391,3.3247,4.1314,3.3259Zm.0411.0115a.0319.0319,0,0,1-.0327.0081l.0044-.0036L4.15,3.3383a.0245.0245,0,0,0,.0139-.018.0226.0226,0,0,0-.01-.0192l-.0048-.0047.0023-.0054L4.16,3.2776l.0026.0016.0058.0079.0079.0153A.0369.0369,0,0,1,4.1725,3.3374Zm.2091-.0311A.0078.0078,0,1,1,4.39,3.2985.0078.0078,0,0,1,4.3816,3.3063Zm.0221-.0446c.0034.0032.01.0051.009.0106s-.0063.0042-.01.0053l-.03.0078A.0426.0426,0,0,0,4.347,3.3a.02.02,0,0,1-.0275.0033c-.0078-.0044-.0133-.0052-.0143.0062a.02.02,0,0,1-.0154.0183.019.019,0,0,1-.0211-.0108A.0111.0111,0,0,0,4.2545,3.31a.05.05,0,0,0-.024.0073c-.004.0033-.0018.0044-.0074.0113A.0306.0306,0,0,1,4.21,3.34a.0278.0278,0,0,1-.0125.0017L4.1913,3.34l.0023-.0032c.0053-.0045.0091-.0031.0143-.0068.001-.0007.0063-.0045.0056-.0085s-.0053-.0037-.0088-.0034-.0108.0039-.0132-.0019a.0227.0227,0,0,1,.0005-.0206.0374.0374,0,0,1,.0116-.0128c.0131-.0086.0153-.0078.02.0071.0011.004.0011.0092.0076.0091s.0051-.0059.006-.01A.0323.0323,0,0,1,4.25,3.268c.0058-.0036.0076-.0072.0025-.0127-.0077-.0084,0-.0135.0051-.0174s.0078.0017.0083.0059a.0213.0213,0,0,0,.0192.0212c.0066.0012.0093.0079.0127.0131.0065.01.0109.01.0172.0006.01-.015.0156-.0159.0316-.0052.0035.0023.007.0046.0111.0024s.0018-.0068.001-.0106L4.35,3.2262c-.0035-.0135-.01-.0165-.0224-.01l-.0092,0c-.0024-.0032-.0068-.0054-.0064-.01s.0055-.0052.0092-.0062c.0268-.0075.0406.002.0441.03L4.37,3.255c.0039.0135.0107.016.0229.0089Z" fill="#fdfefb"/><polygon points="4.26 3.285 4.26 3.284 4.257 3.283 4.257 3.283 4.255 3.284 4.255 3.284 4.254 3.284 4.254 3.284 4.253 3.295 4.26 3.295 4.261 3.294 4.261 3.294 4.26 3.285" fill="#fdfefb"/><path d="M3.7594,3.1531H3.7586a.0183.0183,0,0,0-.0122.0064.0331.0331,0,0,0-.01.0244l.0043.01.0109.0215.0017.0039.0025-.0037.0085-.0108.0031-.0037a.0385.0385,0,0,0,.0086-.0271C3.7747,3.1649,3.7675,3.1538,3.7594,3.1531Z" fill="#fdfefb"/><path d="M4.2835,3.3123a.0057.0057,0,0,0,.0081-.0081A.0057.0057,0,0,0,4.2835,3.3123Z" fill="#fdfefb"/><path d="M3.9463,3.1782l-.0047.0042-.0066.0087-.0029.0041.02.0192.0112.0129a.06.06,0,0,0,.01-.0488.0282.0282,0,0,0-.0141-.0169l-.004-.0005h-.001L3.9529,3.17Z" fill="#fdfefb"/><path d="M3.8538,2.18a.1534.1534,0,0,0,.05-.0261l.007-.0128,0,0a.6087.6087,0,0,0,.0408-.156L3.96,1.986a.5957.5957,0,0,1-.0418.1587l0,0-.0092.0172A.1761.1761,0,0,0,3.896,2.2l.0275-.0174.0011-.0007A.0764.0764,0,0,0,3.9513,2.16a.0554.0554,0,0,0,.0079-.0179c.0058-.0218.015-.0841.0241-.1626l.008.0009a1.6541,1.6541,0,0,1-.0243.1637.0671.0671,0,0,1-.0073.0177l.03.0318.0284-.0289,0,0-.003-.0137c-.0013-.0251-.0038-.0812-.0067-.1634l.008,0c.003.0822.0054.1382.0067.1632l.0024.0111c.007.0167.03.0274.0656.0312l-.0052-.023a.1188.1188,0,0,1-.0251-.0635c-.0078-.0363-.0139-.0738-.0182-.1117l.008-.0009c.0043.0376.01.0749.018.111s.0134.0527.0274.0633a.0691.0691,0,0,0,.0478.0116.3192.3192,0,0,1-.02-.0353.381.381,0,0,1-.0321-.1446c-.0006-.0151,0-.0273,0-.039A.4569.4569,0,0,0,4.09,1.8914a.1064.1064,0,0,0-.0126-.0456l-.0067-.0046c-.004-.0019-.008-.0028-.0268-.0016-.0249.0015-.0374.0023-.0425.0079s-.0056.0129-.013.0155a.0148.0148,0,0,1-.011,0c-.0067-.0032-.0047-.01-.0107-.0126s-.01.0013-.016-.0025L3.948,1.8453c-.005-.0051-.0511-.0441-.0852-.0319a.0327.0327,0,0,0-.0169.0129.0353.0353,0,0,0-.0017.029.0419.0419,0,0,1,.0226-.0232c.0255-.0093.0655.0156.0927.0669a.0263.0263,0,0,0-.0291.0023l-.0055.007a.137.137,0,0,1-.0006.0482.415.415,0,0,1-.0271.1119.4647.4647,0,0,1-.0686.1166A.1429.1429,0,0,0,3.8538,2.18Z" fill="#fdfefb"/><path d="M4.1106,2.2893a.4207.4207,0,0,1-.1175-.0551.449.449,0,0,1-.2531.0717.67.67,0,0,0,.0046.0917h0v0a.6452.6452,0,0,0,.02.0988h0a.5908.5908,0,0,0,.2285.3213.6448.6448,0,0,0,.1428-.1532.6662.6662,0,0,0,.1086-.359A.42.42,0,0,1,4.1106,2.2893Zm.0178.3663a.5873.5873,0,0,1-.1329.142l-.0024.0008-.0023-.0007a.5458.5458,0,0,1-.1359-.1361.5671.5671,0,0,1-.0982-.3383l.0013-.0028.0028-.0011a.3986.3986,0,0,0,.23-.0648h.0045a.3717.3717,0,0,0,.2282.0645l.003.0011.0012.0029A.6087.6087,0,0,1,4.1284,2.6556Z" fill="#fdfefb"/><path d="M3.9018,2.3066l-.0013,0v.4a.5419.5419,0,0,0,.0925.0828.5909.5909,0,0,0,.0832-.0786V2.305a.3808.3808,0,0,1-.0832-.0422A.4051.4051,0,0,1,3.9018,2.3066Z" fill="#fdfefb"/><polygon points="3.789 2.977 3.792 2.98 3.816 3.05 3.863 2.98 3.843 2.879 3.799 2.938 3.795 2.94 3.792 2.937 3.771 2.867 3.71 2.929 3.741 3.047 3.785 2.979 3.789 2.977" fill="#fdfefb"/><polygon points="4.21 2.867 4.19 2.937 4.187 2.94 4.183 2.938 4.138 2.879 4.119 2.98 4.165 3.05 4.189 2.98 4.193 2.977 4.197 2.979 4.241 3.047 4.272 2.929 4.21 2.867" fill="#fdfefb"/><polygon points="4.027 3.307 4.021 3.312 4.027 3.318 4.032 3.312 4.027 3.307" fill="#fdfefb"/><path d="M3.4478,2.17l.0572-.0315.0041,0,.0019.0035-.04.9472.0161-.0148L3.53,2.1621l.0042-.0038.0023.0009h0l.0581.046.0015.0033-.0338.7971.0195-.0179.0313-.7585.0024-.0035.0042.0006.0474.04.0014.0032L3.6442,2.93l.0211-.0193.022-.629.0019-.0033.0038,0,.0439.0194A.4413.4413,0,0,0,3.991,2.226h.0045a.4114.4114,0,0,0,.25.0717l.0437-.0193.0038,0,.0018.0033.022.629.0211.0193L4.3133,2.27l.0014-.0032.0474-.04.0042-.0006.0024.0035L4.4,2.9877l.0194.0179-.0338-.7971.0016-.0033.0581-.046h0l.0023-.0009.0042.0038.0425.9124.0161.0148-.04-.9472.0019-.0035.0041,0L4.534,2.17V2.1666a.0949.0949,0,0,0-.0275-.0724.0928.0928,0,0,0-.0528-.022.1912.1912,0,0,0-.0856.017.2015.2015,0,0,0-.0383.0192.3771.3771,0,0,1-.0462.0245.3444.3444,0,0,1-.0975.0316.2671.2671,0,0,1-.04.0027l.0082.013,0,.0039-.0031.0023a.0823.0823,0,0,1-.0554-.0091L4.1,2.1961,4.0994,2.2l-.0031.0014h0a.0976.0976,0,0,1-.0735-.029l-.03.03L3.99,2.2034h0L3.987,2.2022l-.032-.0337a.0963.0963,0,0,1-.0261.02l-.0011.0007-.0354.0224L3.89,2.2124,3.888,2.2117l-.0017-.004a.1949.1949,0,0,1,.011-.0394.1608.1608,0,0,1-.0412.0191.1545.1545,0,0,1-.0364.0065h0l-.0036-.0022.0005-.0044.0159-.02a.2761.2761,0,0,1-.0364-.0027.3441.3441,0,0,1-.0974-.0316.3771.3771,0,0,1-.0462-.0245.208.208,0,0,0-.0383-.0192.1912.1912,0,0,0-.0856-.017.0923.0923,0,0,0-.0528.022.0955.0955,0,0,0-.0276.0724V2.17Z" fill="#fdfefb"/><path d="M4.3985,3.15a.0977.0977,0,0,1,.0261.0129l.0106.0085a.0477.0477,0,0,0-.0015-.035c-.0048-.01-.0164-.0245-.0274-.0245H4.4057l-.0023,0-.006,0L4.4,3.1352A.0416.0416,0,0,1,4.3985,3.15Z" fill="#fdfefb"/><path d="M3.5961,3.1528c.0078.0035.0732.0163.1324.0272a.0435.0435,0,0,1,.0121-.0262A.025.025,0,0,1,3.76,3.1451c.0123.001.0221.0154.0241.0282a.0365.0365,0,0,1-.0011.0152c.0661.0043.112.0065.1256.0069a.0247.0247,0,0,0,.015-.0034l.0043-.0051.0079-.01.0053-.0048.0042-.0049,0-.0075a.0323.0323,0,0,1-.0142-.0121.9223.9223,0,0,1-.3289-.0441L3.5933,3.11a.1116.1116,0,0,0-.0035.0253c0,.0086.0007.0129.0034.0155Zm.2731.0161.0253-.0027.02-.0026.006.0045-.0045.0061-.0206.0027L3.87,3.18H3.87l-.0053-.0049Zm-.0746-.005.0234-.0024a.141.141,0,0,1,.0234.0017l.0044.0062L3.84,3.1738a.1184.1184,0,0,0-.0215-.0016l-.0215.0023h-.001L3.79,3.17Zm-.1283-.0225.0062-.0043L3.7,3.1436l.0226.0079.0029.007L3.72,3.1618l-.002,0-.0217-.0075-.0259-.0062Zm-.0674-.02L3.605,3.117l.0186.0045a.1194.1194,0,0,1,.0228.01l.002.0073-.0047.0027L3.6411,3.141,3.62,3.1317l-.017-.0041Z" fill="#fdfefb"/><path d="M4.2253,2.4965l.008.26.0219.0743-.0164-.396c-.0036.0179-.0082.0364-.0136.0553Z" fill="#fdfefb"/><path d="M3.5573,3.1629A.0963.0963,0,0,1,3.5834,3.15a.0416.0416,0,0,1-.0017-.0148l.0028-.0228-.0061,0-.0022,0c-.0112,0-.0232.014-.0281.0245a.0476.0476,0,0,0-.0014.035Z" fill="#fdfefb"/><path d="M4.247,3.0564l.0447.0624L4.3286,3.11,4.278,2.9375l-.0312.1186Z" fill="#fdfefb"/><polygon points="4.212 2.802 4.209 2.804 4.208 2.804 4.205 2.803 4.147 2.75 4.138 2.843 4.135 2.846 4.134 2.846 4.131 2.845 4.094 2.8 4.064 2.899 4.113 2.971 4.132 2.869 4.135 2.866 4.139 2.867 4.185 2.927 4.205 2.858 4.207 2.855 4.211 2.856 4.272 2.918 4.228 2.769 4.212 2.802" fill="#fdfefb"/><path d="M4.2174,3.2053l.0085.0108.0025.0037L4.23,3.2159l.0108-.0215.0044-.01a.0331.0331,0,0,0-.01-.0244.0183.0183,0,0,0-.0123-.0064H4.2225c-.0081.0007-.0154.0118-.0168.0214a.0385.0385,0,0,0,.0086.0271Z" fill="#fdfefb"/><path d="M3.8279,3.232c-.0065.0038-.0178.0051-.0079.0168l0,.0066-.0085.0594c0,.0029-.0007.0068-.0047.0071s-.0063-.0032-.0059-.0071c.0008-.0082-.0024-.0128-.0107-.0137-.0041,0-.007-.0026-.0065-.0069s.0052-.0039.0085-.0045c.0124-.0021.0143-.0067.0058-.0162-.0071-.0079-.0018-.0037-.0115-.0185l-.0092-.0106a.0147.0147,0,0,0-.0109.0048l-.0075.01c-.005.004-.0078.0012-.0149.0058-.002.0013-.0069.0046-.0071.0092l.0007.0034L3.745,3.28l.009.004.0007.0057c-.002.0053-.0117.0056-.0143.0057a.0178.0178,0,0,1-.013-.0027.0308.0308,0,0,1-.0059-.02l-.0032-.0108-.003,0c-.0054,0-.0068.0075-.0093.012l.002.0075a.0236.0236,0,0,1-.0006.0205c-.0058.0128-.0289.01-.0289.0148s.0176.01.0273.004l.008-.0058a.0242.0242,0,0,1,.0252-.0072c.0083.0013.0163.0049.0228-.0045.0021-.0031.0067-.0033.0079.002a.0113.0113,0,0,0,.0124.01c.0034,0,.006.0012.0055.0056a.0152.0152,0,0,0,.0154.019c.0121.0005.018-.0073.0206-.0188.0064-.0274.0067-.0557.012-.0833C3.8368,3.2308,3.8339,3.2285,3.8279,3.232Zm-.0487.0446L3.7757,3.28a.0087.0087,0,0,1-.0116-.0043L3.77,3.2664l.0047,0Z" fill="#c09404"/><path d="M4.1686,3.2871l-.0058-.0079L4.16,3.2776l-.0085.0134-.0023.0054.0048.0047a.0226.0226,0,0,1,.01.0192.0245.0245,0,0,1-.0139.018l-.0058.0036L4.14,3.3455a.0319.0319,0,0,0,.0327-.0081.0369.0369,0,0,0,.004-.035Z" fill="#c09404"/><path d="M3.8517,3.3124l.0011-.0115.001-.0172a.09.09,0,0,1,.0037-.0255l.0027-.005.0054-.0049L3.8578,3.24l-.0086-.0083-.0024.006-.01.0751.0016.0072.0059.0034C3.8486,3.3234,3.8509,3.3151,3.8517,3.3124Z" fill="#c09404"/><path d="M4.2236,2.3192a.3717.3717,0,0,1-.2282-.0645H3.9909a.3986.3986,0,0,1-.23.0648l-.0028.0011-.0013.0028a.5671.5671,0,0,0,.0982.3383.5458.5458,0,0,0,.1359.1361l.0023.0007.0024-.0008a.5873.5873,0,0,0,.1329-.142.6087.6087,0,0,0,.0994-.3324L4.2266,2.32Zm-.1474.3916a.5909.5909,0,0,1-.0832.0786.5419.5419,0,0,1-.0925-.0828v-.4l.0013,0a.4051.4051,0,0,0,.0912-.0438.3808.3808,0,0,0,.0832.0422Z" fill="#c3900a"/><path d="M3.3991,3.163l.0017,0,.0027-.0011.0907-.0831h0l.0693-.0637c.0491-.0452.1-.0918.1494-.1372l-.0674.23L3.6027,3.095l-.0043.0012a.0222.0222,0,0,1-.0116.0077l-.0074,0-.0029,0c-.0159-.0007-.03.0171-.0357.0292a.055.055,0,0,0-.0024.0388L3.5346,3.19a.0676.0676,0,0,0-.0276.0158l-.0078.009a.0344.0344,0,0,1-.0106.01l-.0151.004a.0079.0079,0,0,0-.0077.0072.0078.0078,0,0,0,.006.0086l.0116.0064a.0281.0281,0,0,1,.0057.0164.0432.0432,0,0,0,.0093.0246.039.039,0,0,0,.0162.01.0561.0561,0,0,0,.0072.0329.0648.0648,0,0,0,.0376.0271,1.4268,1.4268,0,0,0,.3608.04h.014l.0481-.0006h.0171l.0483.0006a1.4953,1.4953,0,0,0,.3747-.04A.065.065,0,0,0,4.46,3.3355a.0568.0568,0,0,0,.0071-.0329.0377.0377,0,0,0,.0162-.01.0433.0433,0,0,0,.0094-.0246.0274.0274,0,0,1,.0057-.0164L4.51,3.2447a.008.008,0,0,0-.0016-.0158l-.0151-.004a.0333.0333,0,0,1-.0106-.01l-.0079-.009A.0673.0673,0,0,0,4.4473,3.19l-.0038-.0181A.0557.0557,0,0,0,4.441,3.133c-.0056-.0121-.02-.03-.0357-.0292l-.0029,0-.0073,0a.0225.0225,0,0,1-.0117-.0077L4.3791,3.095l-.0427.0128-.0674-.23c.05.0454.1.092.1493.1372l.0693.0637h0l.0907.0831.0027.0011.0017,0,.0023-.0038-.0219-.5035q-.0107-.2448-.0212-.4889a.1032.1032,0,0,0-.03-.0785.1013.1013,0,0,0-.0571-.0241.1888.1888,0,0,0-.09.0175.2154.2154,0,0,0-.04.02.3406.3406,0,0,1-.0453.0241.3341.3341,0,0,1-.0952.0309.2586.2586,0,0,1-.0431.0027V2.16l-.01-.02A.3732.3732,0,0,1,4.1,1.999c0-.0149,0-.0269,0-.0385a.47.47,0,0,0-.0023-.07.1032.1032,0,0,0-.02-.0576.1067.1067,0,0,0-.0448-.03c-.0182-.0082-.0668-.03-.09-.0087l-.0056.0067L3.91,1.7971c-.03-.0033-.0485-.0053-.0616.0059a.0483.0483,0,0,0-.014.0263c-.0034.0124-.0055.0371.005.0406.0043.0014.0075-.0016.01-.0042l.011-.0068a.0308.0308,0,0,1,.02.0028.06.06,0,0,1,.03.0312.1032.1032,0,0,1,.005.0625.4092.4092,0,0,1-.0265.11.46.46,0,0,1-.0517.0938.27.27,0,0,1-.0412-.0027.3341.3341,0,0,1-.0952-.0309.3546.3546,0,0,1-.0453-.0241.2154.2154,0,0,0-.04-.02.1882.1882,0,0,0-.09-.0175.1015.1015,0,0,0-.0572.0241.103.103,0,0,0-.03.0785l-.0216.4964q-.0108.2483-.0215.496Zm.3544-.3944.0167.0336.0029.0022h.0007l.0027-.001.058-.053.0094.0922.0029.0034.0011,0,.0032-.0015L3.8875,2.8l.03.0988-.0483.0724-.02-.1022-.003-.0031-.0042.0015-.0451.06-.02-.0688-.0029-.0027-.0038.001L3.71,2.9178Zm.3824-.1038a.6448.6448,0,0,1-.1428.1532.5908.5908,0,0,1-.2285-.3213h0a.6452.6452,0,0,1-.02-.0988v0h0A.67.67,0,0,1,3.74,2.3059a.449.449,0,0,0,.2531-.0717.4207.4207,0,0,0,.2514.0716A.6662.6662,0,0,1,4.1359,2.6648Zm.1193.1664-.0219-.0743-.008-.26v-.006c.0054-.0189.01-.0374.0136-.0553Zm-.0143.2158-.0442-.0684-.0039-.0018L4.19,2.98l-.0242.07L4.1191,2.98l.0194-.1013.0445.0589.004.0016L4.19,2.9367l.02-.07.0614.062Zm.0033.0193.0389.0544c-.0185.0039-.0372.0073-.0559.01Zm-.0811-.0055.0039.0018L4.17,3.06l.0241-.07.0437.0676-.0195.0745h-.001l-.0114.0014L4.1793,3.09l-.0038-.0019-.0034.0025-.0184.0479L4.1114,3.14l-.0122-.0568.0177-.0919Zm.0343.0738-.0348.0033.0141-.0368ZM4.029,3.17l.0065.0082.0048.0042.0066.0087.0028.0041-.02.0192-.0112.0129a.06.06,0,0,1-.01-.0488c.0016-.0038.0057-.014.0141-.0169l.0041-.0005h.001Zm.0025-.0174-.0047,0L4.02,3.154a.0353.0353,0,0,0-.0189.0215l-.0018.0054h-.017l-.0017-.0054a.0352.0352,0,0,0-.019-.0215l-.0066-.0009-.0048,0a.0233.0233,0,0,1-.0131-.0113l-.0037-.0019c-.0182.0009-.0365.0012-.0548.001L3.8853,3.11l.02.0218.0056,0,.0328-.0274.0014-.0025.0162-.12-.0064.1195.0008.0026.0311.0426.0033.0016h0l.0032-.0016.0322-.0429.0008-.0027-.0074-.1133.0164.115.0014.0026.0331.0268.0056,0,.02-.0242.007.0328c-.0183,0-.0366,0-.0549-.001l-.0036.0019A.0238.0238,0,0,1,4.0315,3.1526Zm-.0774.0085h.001l.004.0005a.0282.0282,0,0,1,.0141.0169.06.06,0,0,1-.01.0488l-.0112-.0129-.02-.0192.0029-.0041.0066-.0087.0047-.0042L3.9529,3.17Zm-.1443-.07-.0034-.0025L3.8026,3.09l-.0269.0435-.0114-.0014h-.001l-.02-.0745L3.7875,2.99l.0241.07.0033.0027.0038-.0018.0463-.0692.0176.0919L3.8705,3.14l-.0423-.0018Zm.01.0473-.0349-.0033.0208-.0335Zm-.0647-.0072c-.0187-.0027-.0373-.0061-.0559-.01l.039-.0544ZM3.71,2.9289l.0614-.062.02.07.0031.0029.0039-.0016.0445-.0589.0195.1013L3.8165,3.05l-.0241-.07L3.789,2.9768l-.0038.0018L3.741,3.047Zm.1616-.2123q.0182.0219.0386.0422l-.0593.0732-.009-.0884Zm-.0307.0171L3.834,2.6661l.0066.01q.0123.0177.0259.0345Zm.0751.0308.0293.0265-.0208.0971L3.9233,2.89l-.03-.0978Zm-.0447.2176L3.92,2.9094l-.0329.154Zm.2236.0813-.033-.154.0486.0727ZM4.0586,2.89l-.0012-.0018-.0206-.0962.0289-.0277.0226.0279Zm.0127-.1316q.02-.0207.0376-.043l.031.0283-.009.0884Zm.0426-.0493c.01-.0129.02-.0262.0287-.04l.0058-.009-.0074.0735ZM4.1575,2.65l.0006-.0058L4.1548,2.65c.0093-.0151.0178-.03.0254-.0454l.0448.1526-.0182.0366L4.1483,2.74Zm-.324.09-.0585.0534-.0182-.0366L3.8,2.6089c.0073.0141.0152.0282.024.0423Zm-.0906-.3c.0035.0188.0079.0381.0136.0579l-.008.2591-.0218.0743Zm-.039.4976.0311.1187h0L3.69,3.1188,3.6533,3.11ZM3.59,3.1354A.1116.1116,0,0,1,3.5933,3.11l.0094-.0067a.9223.9223,0,0,0,.3289.0441.0323.0323,0,0,0,.0142.0121l0,.0075-.0042.0049-.0053.0048-.0079.01-.0043.0051a.0247.0247,0,0,1-.015.0034c-.0136,0-.0595-.0026-.1256-.0069a.0365.0365,0,0,0,.0011-.0152c-.002-.0128-.0118-.0272-.0241-.0282a.025.025,0,0,0-.0195.0087.0435.0435,0,0,0-.0121.0262c-.0592-.0109-.1246-.0237-.1324-.0272l-.0029-.0019C3.5905,3.1483,3.59,3.144,3.59,3.1354Zm.1778.0662-.0031.0037-.0085.0108L3.7535,3.22l-.0017-.0039-.0109-.0215-.0043-.01a.0331.0331,0,0,1,.01-.0244.0183.0183,0,0,1,.0122-.0064h.0008c.0081.0007.0153.0118.0168.0214A.0385.0385,0,0,1,3.7676,3.2016Zm-.22-.0652c.0049-.01.0169-.025.0281-.0245l.0022,0,.0061,0-.0028.0228a.0416.0416,0,0,0,.0017.0148.0963.0963,0,0,0-.0261.0129l-.0106.0085A.0476.0476,0,0,1,3.5481,3.1364Zm.8553-.0243.0023,0h.0006c.011,0,.0226.0142.0274.0245a.0477.0477,0,0,1,.0015.035l-.0106-.0085A.0977.0977,0,0,0,4.3985,3.15.0416.0416,0,0,0,4.4,3.1352l-.0028-.0228ZM4.42,3.17l.0078.0062.0047.0223.006.0062a.0532.0532,0,0,1,.0251.013l.0064.0074a.0489.0489,0,0,0,.0154.0143L4.487,3.24l0,0a.0424.0424,0,0,0-.01.025.029.029,0,0,1-.0056.0163.0252.0252,0,0,1-.0144.0072.0081.0081,0,0,0-.0064.0091.0439.0439,0,0,1-.0043.03.0491.0491,0,0,1-.0288.02,1.5109,1.5109,0,0,1-.3695.0391L4,3.3858H3.9822l-.0482.0006a1.512,1.512,0,0,1-.37-.0391.0492.0492,0,0,1-.0287-.02.0439.0439,0,0,1-.0044-.03.008.008,0,0,0-.0064-.0091.025.025,0,0,1-.0144-.0073.0291.0291,0,0,1-.0055-.0162.0419.0419,0,0,0-.01-.025l0,0,.0017-.0009a.0489.0489,0,0,0,.0154-.0143l.0064-.0074a.0527.0527,0,0,1,.0251-.013l.006-.0062.0046-.0223L3.5619,3.17a.0905.0905,0,0,1,.026-.0125h0l.0049.0032c.01.0047.0986.0213.136.0281l0-.0009.0049.011.01.0209.0047.0111.0035.0025h0l.0035-.0021.0062-.01.0079-.01.0035-.0041.0063-.01h0c.0674.0045.1144.0067.1282.0071h.0024A.0321.0321,0,0,0,3.9256,3.2l.0209.02.0142.0168.0032.0016h0l.0032-.0017a.0937.0937,0,0,0,.0161-.04h.0152a.0948.0948,0,0,0,.0162.04l.0032.0017h0l.0033-.0016L4.0353,3.22l.0209-.02a.0321.0321,0,0,0,.0147.0031h.0025c.0138,0,.0608-.0026.1282-.0071h0l.0063.01.0034.0041.008.01.0062.01.0035.0021h0L4.2327,3.23l.0047-.0111.01-.0209.005-.011v.0009c.0374-.0068.1256-.0234.1361-.0281l.0049-.0032h0A.0918.0918,0,0,1,4.42,3.17Zm-.2143.005c.0014-.01.0087-.0207.0168-.0214h.0007a.0183.0183,0,0,1,.0123.0064.0331.0331,0,0,1,.01.0244l-.0044.01L4.23,3.2159,4.2284,3.22l-.0025-.0037-.0085-.0108-.0031-.0037A.0385.0385,0,0,1,4.2057,3.1745Zm.1735-.0711.0093.0067a.1119.1119,0,0,1,.0036.0253c0,.0086-.0008.0129-.0034.0155l-.0029.0019c-.0078.0035-.0732.0163-.1325.0272a.0424.0424,0,0,0-.0121-.0262.0252.0252,0,0,0-.0194-.0087c-.0124.001-.0221.0154-.0241.0282a.0382.0382,0,0,0,.001.0152c-.066.0043-.112.0065-.1255.0069a.025.025,0,0,1-.0151-.0034l-.0043-.0051-.0078-.01L4.0407,3.172l-.0042-.0049L4.036,3.16A.0318.0318,0,0,0,4.05,3.1475a.9225.9225,0,0,0,.329-.0441ZM4.3286,3.11l-.0369.0089L4.247,3.0564l0,0,.0312-.1186Zm-.0564-.1921-.0608-.0615-.0039-.001-.0028.0027-.02.0688-.0451-.06-.0041-.0015-.003.0031-.02.1022-.0483-.0724.03-.0988.0364.045.0031.0015.0012,0,.0028-.0034L4.1473,2.75l.058.053.0027.001h.0008l.0029-.0022.0167-.0336Zm-.29-1.0916a.0111.0111,0,0,1,0,.0221.0111.0111,0,1,1,0-.0221Zm-.0845.2422a.415.415,0,0,0,.0271-.1119.137.137,0,0,0,.0006-.0482l.0055-.007A.0263.0263,0,0,1,3.96,1.899c-.0272-.0513-.0672-.0762-.0927-.0669a.0419.0419,0,0,0-.0226.0232.0353.0353,0,0,1,.0017-.029.0327.0327,0,0,1,.0169-.0129c.0341-.0122.08.0268.0852.0319l.0028.0023c.0061.0038.0107,0,.016.0025s.004.0094.0107.0126a.0148.0148,0,0,0,.011,0c.0074-.0026.0074-.01.013-.0155s.0176-.0064.0425-.0079c.0188-.0012.0228,0,.0268.0016l.0067.0046a.1064.1064,0,0,1,.0126.0456.4569.4569,0,0,1,.0023.0689c0,.0117-.0007.0239,0,.039a.381.381,0,0,0,.0321.1446.3192.3192,0,0,0,.02.0353.0691.0691,0,0,1-.0478-.0116c-.014-.0106-.0193-.0258-.0274-.0633s-.0137-.0734-.018-.111l-.008.0009c.0043.0379.01.0754.0182.1117a.1188.1188,0,0,0,.0251.0635l.0052.023c-.036-.0038-.0586-.0145-.0656-.0312L4.0232,2.15c-.0013-.025-.0037-.081-.0067-.1632l-.008,0c.0029.0822.0054.1383.0067.1634l.003.0137,0,0L3.99,2.1936l-.03-.0318a.0671.0671,0,0,0,.0073-.0177A1.6541,1.6541,0,0,0,3.9913,1.98L3.9833,1.98c-.0091.0785-.0183.1408-.0241.1626a.0554.0554,0,0,1-.0079.0179.0764.0764,0,0,1-.0267.0218l-.0011.0007L3.896,2.2a.1761.1761,0,0,1,.0127-.0377l.0092-.0172,0,0A.5957.5957,0,0,0,3.96,1.986L3.952,1.9846a.6087.6087,0,0,1-.0408.156l0,0-.007.0128a.1534.1534,0,0,1-.05.0261.1429.1429,0,0,1-.0252.0053A.4647.4647,0,0,0,3.8972,2.0684Zm-.4217.0258a.0923.0923,0,0,1,.0528-.022.1912.1912,0,0,1,.0856.017.208.208,0,0,1,.0383.0192.3771.3771,0,0,0,.0462.0245.3441.3441,0,0,0,.0974.0316.2761.2761,0,0,0,.0364.0027l-.0159.02-.0005.0044.0036.0022h0a.1545.1545,0,0,0,.0364-.0065.1608.1608,0,0,0,.0412-.0191.1949.1949,0,0,0-.011.0394l.0017.004.0023.0007.0021-.0007.0354-.0224.0011-.0007a.0963.0963,0,0,0,.0261-.02l.032.0337.0029.0012h0l.0029-.0012.03-.03a.0976.0976,0,0,0,.0735.029h0L4.0994,2.2,4.1,2.1961,4.096,2.1773a.0823.0823,0,0,0,.0554.0091l.0031-.0023,0-.0039-.0082-.013a.2671.2671,0,0,0,.04-.0027.3444.3444,0,0,0,.0975-.0316A.3771.3771,0,0,0,4.33,2.1084a.2015.2015,0,0,1,.0383-.0192.1912.1912,0,0,1,.0856-.017.0928.0928,0,0,1,.0528.022.0949.0949,0,0,1,.0275.0724V2.17l-.0571-.0315-.0041,0-.0019.0035.04.9472-.0161-.0148-.0425-.9124-.0042-.0038-.0023.0009h0l-.0581.046-.0016.0033.0338.7971L4.4,2.9877l-.0314-.7585-.0024-.0035-.0042.0006-.0474.04L4.3133,2.27l.0243.6606L4.3165,2.911l-.022-.629-.0018-.0033-.0038,0-.0437.0193a.4114.4114,0,0,1-.25-.0717H3.991a.4413.4413,0,0,1-.2541.0718L3.693,2.2784l-.0038,0-.0019.0033-.022.629L3.6442,2.93,3.6685,2.27l-.0014-.0032-.0474-.04-.0042-.0006-.0024.0035-.0313.7585-.0195.0179.0338-.7971-.0015-.0033-.0581-.046h0l-.0023-.0009L3.53,2.1621l-.0425.9124-.0161.0148.04-.9472-.0019-.0035-.0041,0L3.4478,2.17V2.1666A.0955.0955,0,0,1,3.4755,2.0942Z" fill="#c3900a"/><path d="M3.9817,1.8483a.0111.0111,0,1,0-.0111-.0111A.0111.0111,0,0,0,3.9817,1.8483Z" fill="#fdfefb"/><path d="M3.6033,3.1276l.017.0041.0208.0093.0026.0007.0047-.0027-.002-.0073a.1194.1194,0,0,0-.0228-.01L3.605,3.117l-.0061.0044Z" fill="#c3900a"/><path d="M3.6706,3.1477l.0259.0062.0217.0075.002,0,.0049-.0033-.0029-.007L3.7,3.1436l-.0271-.0065-.0062.0043Z" fill="#c3900a"/><path d="M3.7956,3.1746h.001l.0215-.0023a.1184.1184,0,0,1,.0215.0016l.0062-.0044-.0044-.0062a.141.141,0,0,0-.0234-.0017l-.0234.0024L3.79,3.17Z" fill="#c3900a"/><path d="M3.87,3.18H3.87l.0256-.0027.0206-.0027.0045-.0061-.006-.0045-.02.0026-.0253.0027-.0048.0058Z" fill="#c3900a"/><path d="M4.1123,3.1715l-.024-.006-.0226-.0023h0L4.06,3.1684l.0052.0055.0212.0022.0224.0056.0017,0,.0051-.0036Z" fill="#c3900a"/><path d="M4.1879,3.1641l-.0258-.0009c-.0073,0-.0148,0-.0222,0l-.0051.0056.0056.0051c.0072,0,.0145-.0005.0216,0l.0252.0009h0l.0054-.005Z" fill="#c3900a"/><path d="M4.26,3.1623l.0018,0,.0255-.008.0237-.0052.0043-.0063-.0062-.0043-.0246.0055-.0263.0082-.0033.0068Z" fill="#c3900a"/><path d="M4.3337,3.1408,4.3363,3.14l.0179-.0081a.104.104,0,0,1,.0234-.0051l.0048-.0058-.0059-.0048a.1091.1091,0,0,0-.0258.0056l-.02.0089-.002.0073Z" fill="#c3900a"/><circle cx="3.5959" cy="3.2217" r="0.0078" fill="#c3900a"/><path d="M3.6878,3.2877l.0091-.0349c.0007-.0029.0013-.0077-.0031-.0068a.0464.0464,0,0,0-.0168.0076c-.0048.0033.0008.007.0012.0106.0007.0056,0,.0118-.0051.0142-.0069.003-.014-.0012-.0206-.0032L3.6494,3.273,3.65,3.2645c.0042-.01.009-.03.0059-.0318l-.0093.0055-.0118.0068.0028.0028a.0092.0092,0,0,1,.0007.0072c-.001.0061-.0016.0116-.0064.0133a.0136.0136,0,0,1-.0139-.0024c-.0046-.0042-.001-.0092,0-.0136l.0157-.051c.0014-.0046.0029-.012-.005-.0091a.0561.0561,0,0,1-.0285.0038.0058.0058,0,0,0-.0074.0058.007.007,0,0,0,.0086.0064l.01-.0042.0077.0024a.0414.0414,0,0,1-.0181.033.03.03,0,0,0-.0222.0173c-.0037.008-.0019.0127.0067.0149l.0891.0233C3.6815,3.2967,3.686,3.2947,3.6878,3.2877ZM3.6,3.2642a.0078.0078,0,1,1,.0078-.0078A.0078.0078,0,0,1,3.6,3.2642Z" fill="#c09404"/><path d="M3.5972,3.2827a.0079.0079,0,1,0,.0079.0079A.0078.0078,0,0,0,3.5972,3.2827Z" fill="#c3900a"/><path d="M3.62,3.2883a.0079.0079,0,1,0,.0078.0079A.0078.0078,0,0,0,3.62,3.2883Z" fill="#c3900a"/><path d="M3.6551,3.3a.0079.0079,0,1,0,.0079.0078A.0078.0078,0,0,0,3.6551,3.3Z" fill="#c3900a"/><path d="M4.0638,3.2631a.0079.0079,0,1,0-.0078-.0078A.0078.0078,0,0,0,4.0638,3.2631Z" fill="#c3900a"/><path d="M4.0733,3.2761a.0078.0078,0,1,0-.0078.0078A.0078.0078,0,0,0,4.0733,3.2761Z" fill="#c3900a"/><path d="M4.0906,3.3366a.0079.0079,0,1,0,.0079.0078A.0078.0078,0,0,0,4.0906,3.3366Z" fill="#c3900a"/><path d="M4.1121,3.3366a.0079.0079,0,1,0,.0078.0078A.0078.0078,0,0,0,4.1121,3.3366Z" fill="#c3900a"/><path d="M4.3816,3.2907a.0078.0078,0,1,0,.0079.0078A.0078.0078,0,0,0,4.3816,3.2907Z" fill="#c3900a"/><path d="M4.1406,3.314,4.137,3.2863c0-.0036,0-.0081-.0043-.0087s-.0089.0035-.0126.0066-.0006.0058.0019.0085a.014.014,0,0,1,.0026.0172.0138.0138,0,0,1-.0146.0043c-.0076-.0015-.0066-.0088-.0072-.0142l-.0057-.0531-.0022-.0075-.0039,0c-.0065.0028-.0143.009-.013.0121l.0029.0023.0036.0026.0033.0171c.0008.01.0019.0115,0,.0142L4.08,3.2946a.0248.0248,0,0,0-.014.0225c-.0014.01,0,.0159.0121.0139.0173-.0044.0354-.0022.0531-.0051C4.1391,3.3247,4.1424,3.3225,4.1406,3.314Zm-.0562.0039-.0055-.0055.0055-.0055.0056.0055Z" fill="#c09404"/><path d="M3.965,3.3067,3.9517,3.306h0l-.0074,0-.0074,0H3.9318l-.01.0018L3.92,3.3105l.0023.0041.0094.0023.027,0c.0093,0,.0118.0011.0134.003a.01.01,0,0,1,.0016.0091l.0047.0055c.0045,0,.0043-.0035.0047-.0064C3.9859,3.3108,3.9832,3.3076,3.965,3.3067Z" fill="#fdfefb"/><path d="M4.0428,3.2913l-.0052-.003c-.0114.0044-.025.0054-.03.0195-.0012.0031-.0011.0079-.0062.0074s-.0042-.0054-.0039-.0086c.001-.0112-.0052-.0135-.0147-.0137a.4089.4089,0,0,0-.0469-.0021l-.0113-.0026-.0019-.0057-.0032-.0069H3.9086l-.0052.01.0016.0036a.0257.0257,0,0,1,.0014.0157c-.0005.0036,0,.0074-.0055.0074a.0077.0077,0,0,1-.0082-.0053l-.0066-.0161-.0042-.0049c-.0006,0-.002,0-.0063.0038l-.0068.01.005.0083a.0261.0261,0,0,1,.004.0208.0234.0234,0,0,1-.0209.0157l-.0109.0009-.0016.0022c0,.0033.0159.0085.0278.0031a.0432.0432,0,0,0,.0172-.0144.0139.0139,0,0,1,.0141-.0078l.0467.0041a.0125.0125,0,0,1,.0124.0092c.0061.0149.0247.0173.0307.0029s.0143-.0118.0239-.0122c.0334-.0013.0345-.0027.0269-.0355Zm-.06.0372c0,.0029,0,.0069-.0047.0064l-.0047-.0055A.01.01,0,0,0,3.972,3.32c-.0016-.0019-.0041-.0028-.0134-.003l-.027,0-.0094-.0023L3.92,3.3105l.0023-.0033.01-.0018h.0051l.0074,0,.0074.0005v0l.0133.0007C3.9832,3.3076,3.9859,3.3108,3.983,3.3285Zm.044-.0106-.0055-.0055.0055-.0055.0055.0055Z" fill="#c09404"/><polygon points="4.287 3.287 4.287 3.287 4.28 3.28 4.279 3.28 4.274 3.285 4.274 3.286 4.28 3.293 4.287 3.287" fill="#fdfefb"/><path d="M4.2047,3.3037a.0057.0057,0,0,0,.0081-.0081A.0057.0057,0,0,0,4.2047,3.3037Z" fill="#fdfefb"/><path d="M4.3313,3.2821l-.0044.0054.0058.0043c.0032,0,.006-.0019.0058-.0064Z" fill="#fdfefb"/><path d="M4.37,3.255,4.365,3.23c-.0035-.028-.0173-.0375-.0441-.03-.0037.001-.0088.001-.0092.0062s.004.0066.0064.01l.0092,0c.0123-.0062.0189-.0032.0224.01l.0088.0391c.0008.0038.004.0078-.001.0106s-.0076,0-.0111-.0024c-.016-.0107-.0213-.01-.0316.0052-.0063.0093-.0107.0092-.0172-.0006-.0034-.0052-.0061-.0119-.0127-.0131a.0213.0213,0,0,1-.0192-.0212c0-.0042-.0025-.0106-.0083-.0059s-.0128.009-.0051.0174c.0051.0055.0033.0091-.0025.0127a.0323.0323,0,0,0-.0129.0211c-.0009.0038.0014.01-.006.01s-.0065-.0051-.0076-.0091c-.0044-.0149-.0066-.0157-.02-.0071a.0374.0374,0,0,0-.0116.0128.0227.0227,0,0,0-.0005.0206c.0024.0058.0085.0023.0132.0019s.0079-.0013.0088.0034-.0046.0078-.0056.0085c-.0052.0037-.009.0023-.0143.0068L4.1913,3.34l.0065.0016A.0278.0278,0,0,0,4.21,3.34a.0306.0306,0,0,0,.0128-.0107c.0056-.0069.0034-.008.0074-.0113a.05.05,0,0,1,.024-.0073.0111.0111,0,0,1,.0142.0062.019.019,0,0,0,.0211.0108.02.02,0,0,0,.0154-.0183c.001-.0114.0065-.0106.0143-.0062A.02.02,0,0,0,4.347,3.3a.0426.0426,0,0,1,.026-.0142l.03-.0078c.0037-.0011.0094-.0011.01-.0053s-.0056-.0074-.009-.0106l-.0106.0022C4.3809,3.271,4.3741,3.2685,4.37,3.255Zm-.1655.0487a.0057.0057,0,0,1,.0081-.0081A.0057.0057,0,0,1,4.2047,3.3037Zm.056-.0093h0l0,0H4.2529l.0009-.0108h0l.0011,0h.002l.0029.001h0Zm.0129-.0085,0-.0013L4.2789,3.28H4.28l.0064.0068v0l-.0062.0055Zm.01.0264a.0057.0057,0,0,1,.0081-.0081A.0057.0057,0,0,1,4.2835,3.3123Zm.0492-.0205-.0058-.0043.0044-.0054.0072.0033C4.3387,3.29,4.3359,3.2913,4.3327,3.2918Z" fill="#c09404"/><path d="M4.2553,3.2835h.0015" fill="none" stroke="#c09404" stroke-linecap="round" stroke-linejoin="round" stroke-width="0"/></svg>